<svg width="1600" height="1100" viewBox="0 0 1600 1100" fill="none" xmlns="http://www.w3.org/2000/svg">
  <defs>
    <linearGradient id="bg" x1="120" y1="80" x2="1480" y2="1020" gradientUnits="userSpaceOnUse">
      <stop stop-color="#F4E8D6"/>
      <stop offset="1" stop-color="#E7D5BB"/>
    </linearGradient>
    <linearGradient id="panel" x1="0" y1="0" x2="0" y2="1">
      <stop stop-color="#FFF9F1"/>
      <stop offset="1" stop-color="#F7EBDC"/>
    </linearGradient>
    <linearGradient id="blue" x1="0" y1="0" x2="1" y2="1">
      <stop stop-color="#5D8FE8"/>
      <stop offset="1" stop-color="#3569C6"/>
    </linearGradient>
    <linearGradient id="floor" x1="0" y1="0" x2="1" y2="1">
      <stop stop-color="#F1E1C3"/>
      <stop offset="1" stop-color="#D9C099"/>
    </linearGradient>
    <filter id="shadow" x="-20%" y="-20%" width="140%" height="140%">
      <feDropShadow dx="0" dy="16" stdDeviation="18" flood-color="#8E6C3A" flood-opacity="0.18"/>
    </filter>
    <filter id="soft" x="-20%" y="-20%" width="140%" height="140%">
      <feDropShadow dx="0" dy="8" stdDeviation="10" flood-color="#000000" flood-opacity="0.16"/>
    </filter>
    <pattern id="gridMinor" width="26" height="26" patternUnits="userSpaceOnUse">
      <path d="M26 0H0V26" stroke="#B69260" stroke-opacity="0.08" stroke-width="1"/>
    </pattern>
    <pattern id="gridMajor" width="130" height="130" patternUnits="userSpaceOnUse">
      <rect width="130" height="130" fill="url(#gridMinor)"/>
      <path d="M130 0H0V130" stroke="#9D7644" stroke-opacity="0.18" stroke-width="1.4"/>
    </pattern>
    <style>
      .title { font: 700 58px Aptos, Segoe UI, sans-serif; fill: #24180f; }
      .subtitle { font: 400 24px Aptos, Segoe UI, sans-serif; fill: #6B553D; }
      .sectionLabel { font: 700 20px Consolas, monospace; fill: white; text-anchor: middle; }
      .sectionMeta { font: 700 16px Consolas, monospace; fill: rgba(255,255,255,0.92); text-anchor: middle; }
      .panelTitle { font: 700 28px Aptos, Segoe UI, sans-serif; fill: #1D140D; }
      .panelBody { font: 400 19px Aptos, Segoe UI, sans-serif; fill: #6B553D; }
      .caption { font: 700 20px Aptos, Segoe UI, sans-serif; fill: #1F5F74; }
      .small { font: 400 17px Aptos, Segoe UI, sans-serif; fill: #6B553D; }
    </style>
  </defs>

  <rect width="1600" height="1100" rx="32" fill="url(#bg)"/>

  <text x="90" y="105" class="title">Simple Live 3D Preview Concept</text>
  <text x="90" y="145" class="subtitle">2D layout stays the main editor. A simplified synchronized 3D scene sits directly underneath and updates while sections move.</text>

  <g filter="url(#shadow)">
    <rect x="70" y="190" width="1460" height="380" rx="30" fill="url(#panel)"/>
    <text x="105" y="240" class="panelTitle">Top: Existing 2D Planner</text>
    <text x="105" y="272" class="panelBody">Drag sections as usual. Labels, sizes, and snapping stay exactly the same.</text>
    <rect x="105" y="300" width="1390" height="225" rx="14" fill="#F5E8D2" stroke="#8D6E48" stroke-width="4"/>
    <rect x="105" y="300" width="1390" height="225" rx="14" fill="url(#gridMajor)"/>

    <rect x="120" y="315" width="58" height="70" rx="10" fill="url(#blue)" stroke="#325A9B" stroke-width="2.5"/>
    <rect x="179" y="315" width="26" height="195" rx="10" fill="url(#blue)" stroke="#325A9B" stroke-width="2.5"/>
    <rect x="210" y="338" width="250" height="110" rx="12" fill="url(#blue)" stroke="#325A9B" stroke-width="2.5"/>
    <rect x="462" y="338" width="92" height="58" rx="12" fill="url(#blue)" stroke="#325A9B" stroke-width="2.5"/>
    <rect x="210" y="455" width="140" height="105" rx="12" transform="translate(0 -50)" fill="url(#blue)" stroke="#325A9B" stroke-width="2.5"/>

    <rect x="620" y="395" width="96" height="56" rx="12" fill="url(#blue)" stroke="#325A9B" stroke-width="2.5"/>
    <rect x="718" y="395" width="96" height="56" rx="12" fill="url(#blue)" stroke="#325A9B" stroke-width="2.5"/>
    <rect x="620" y="488" width="96" height="56" rx="12" fill="url(#blue)" stroke="#325A9B" stroke-width="2.5"/>
    <rect x="718" y="488" width="96" height="56" rx="12" fill="url(#blue)" stroke="#325A9B" stroke-width="2.5"/>

    <rect x="956" y="333" width="92" height="90" rx="12" fill="url(#blue)" stroke="#325A9B" stroke-width="2.5"/>
    <rect x="1094" y="333" width="92" height="90" rx="12" fill="url(#blue)" stroke="#325A9B" stroke-width="2.5"/>
    <rect x="960" y="454" width="142" height="108" rx="12" transform="translate(0 -65)" fill="url(#blue)" stroke="#325A9B" stroke-width="2.5"/>
    <rect x="1160" y="454" width="142" height="108" rx="12" transform="translate(0 -65)" fill="url(#blue)" stroke="#325A9B" stroke-width="2.5"/>
    <rect x="1190" y="455" width="186" height="70" rx="12" transform="translate(0 50)" fill="url(#blue)" stroke="#325A9B" stroke-width="2.5"/>
    <rect x="1390" y="336" width="90" height="70" rx="12" fill="url(#blue)" stroke="#325A9B" stroke-width="2.5"/>

    <text x="145" y="350" class="sectionLabel">Closet</text>
    <text x="145" y="373" class="sectionMeta">36" x 48"</text>
    <text x="335" y="385" class="sectionLabel">S65T &amp; S145-P</text>
    <text x="335" y="409" class="sectionMeta">120" x 60"</text>
    <text x="508" y="370" class="sectionLabel">S25T</text>
    <text x="508" y="391" class="sectionMeta">48" x 28"</text>
    <text x="280" y="460" class="sectionLabel">Axiom</text>
    <text x="280" y="484" class="sectionMeta">72" x 72"</text>
    <text x="668" y="423" class="sectionLabel">HG1</text>
    <text x="766" y="423" class="sectionLabel">HG2</text>
    <text x="668" y="516" class="sectionLabel">HB1</text>
    <text x="766" y="516" class="sectionLabel">HB2</text>
    <text x="1002" y="372" class="sectionLabel">Measur3D</text>
    <text x="1140" y="372" class="sectionLabel">ZCAT</text>
    <text x="1031" y="449" class="sectionLabel">Meeting 1</text>
    <text x="1231" y="449" class="sectionLabel">Meeting 2</text>
    <text x="1283" y="538" class="sectionLabel">Cell of Future</text>
    <text x="1435" y="375" class="sectionLabel">ZCAT Auto</text>
  </g>

  <g filter="url(#shadow)">
    <rect x="70" y="605" width="1460" height="420" rx="30" fill="url(#panel)"/>
    <text x="105" y="655" class="panelTitle">Bottom: Proposed Simple Live 3D Preview</text>
    <text x="105" y="687" class="panelBody">Not photorealistic. Each section becomes a clean 3D object so movement and spacing are obvious in real time.</text>

    <g transform="translate(180 760)">
      <polygon points="0,80 880,0 1160,120 280,210" fill="url(#floor)" stroke="#C0A170" stroke-width="3"/>

      <polygon points="60,56 170,42 170,110 60,126" fill="#2959B7" fill-opacity="0.14"/>
      <polygon points="170,42 214,62 214,130 170,110" fill="#1D4A98" fill-opacity="0.16"/>
      <polygon points="60,56 170,42 214,62 104,76" fill="#6E9EF0" fill-opacity="0.32"/>

      <g filter="url(#soft)" transform="translate(705,-44)">
        <polygon points="0,0 200,-20 230,0 30,20" fill="#23519D"/>
        <polygon points="0,0 0,90 30,110 30,20" fill="#17437D"/>
        <polygon points="30,20 230,0 230,90 30,110" fill="url(#blue)"/>
        <rect x="-38" y="-14" width="52" height="62" fill="#F5F2EC" stroke="#D1C7BB"/>
        <rect x="206" y="-14" width="52" height="62" fill="#F5F2EC" stroke="#D1C7BB"/>
        <text x="130" y="48" class="sectionLabel">Backdrop Wall</text>
      </g>

      <g filter="url(#soft)" transform="translate(638,65)">
        <polygon points="0,0 54,-7 68,1 14,8" fill="#E7E7E7"/>
        <polygon points="0,0 0,118 14,126 14,8" fill="#CECECE"/>
        <polygon points="14,8 68,1 68,119 14,126" fill="#F5F5F5"/>
      </g>
      <g filter="url(#soft)" transform="translate(897,40)">
        <polygon points="0,0 54,-7 68,1 14,8" fill="#E7E7E7"/>
        <polygon points="0,0 0,118 14,126 14,8" fill="#CECECE"/>
        <polygon points="14,8 68,1 68,119 14,126" fill="#F5F5F5"/>
      </g>

      <g filter="url(#soft)" transform="translate(132,95)">
        <polygon points="0,0 110,-12 138,2 28,15" fill="#EFEFEF"/>
        <polygon points="0,0 0,54 28,69 28,15" fill="#D5D5D5"/>
        <polygon points="28,15 138,2 138,56 28,69" fill="#FAFAFA"/>
      </g>

      <g filter="url(#soft)" transform="translate(566,118)">
        <polygon points="0,0 70,-8 90,4 20,12" fill="#FAFAFA"/>
        <polygon points="0,0 0,75 20,87 20,12" fill="#DADADA"/>
        <polygon points="20,12 90,4 90,79 20,87" fill="#FFFFFF"/>
        <rect x="26" y="30" width="40" height="19" fill="#2B4FA1"/>
      </g>
      <g filter="url(#soft)" transform="translate(666,105)">
        <polygon points="0,0 70,-8 90,4 20,12" fill="#FAFAFA"/>
        <polygon points="0,0 0,75 20,87 20,12" fill="#DADADA"/>
        <polygon points="20,12 90,4 90,79 20,87" fill="#FFFFFF"/>
        <rect x="26" y="30" width="40" height="19" fill="#2B4FA1"/>
      </g>
      <g filter="url(#soft)" transform="translate(744,90)">
        <polygon points="0,0 70,-8 90,4 20,12" fill="#FAFAFA"/>
        <polygon points="0,0 0,75 20,87 20,12" fill="#DADADA"/>
        <polygon points="20,12 90,4 90,79 20,87" fill="#FFFFFF"/>
        <rect x="26" y="30" width="40" height="19" fill="#2B4FA1"/>
      </g>

      <g filter="url(#soft)" transform="translate(355,82)">
        <polygon points="0,0 80,-8 100,5 20,14" fill="#F8F8F8"/>
        <polygon points="0,0 0,74 20,88 20,14" fill="#D5D5D5"/>
        <polygon points="20,14 100,5 100,79 20,88" fill="#FFFFFF"/>
        <line x1="54" y1="-42" x2="54" y2="14" stroke="#2F58AA" stroke-width="5"/>
        <rect x="6" y="-42" width="96" height="7" fill="#2F58AA"/>
      </g>
      <g filter="url(#soft)" transform="translate(482,58)">
        <polygon points="0,0 80,-8 100,5 20,14" fill="#F8F8F8"/>
        <polygon points="0,0 0,74 20,88 20,14" fill="#D5D5D5"/>
        <polygon points="20,14 100,5 100,79 20,88" fill="#FFFFFF"/>
        <line x1="54" y1="-42" x2="54" y2="14" stroke="#2F58AA" stroke-width="5"/>
        <rect x="6" y="-42" width="96" height="7" fill="#2F58AA"/>
      </g>

      <g filter="url(#soft)" transform="translate(254,144)">
        <ellipse cx="35" cy="14" rx="35" ry="14" fill="#FEFEFE"/>
        <line x1="35" y1="28" x2="35" y2="67" stroke="#88694B" stroke-width="5"/>
        <line x1="35" y1="67" x2="18" y2="98" stroke="#88694B" stroke-width="4"/>
        <line x1="35" y1="67" x2="52" y2="98" stroke="#88694B" stroke-width="4"/>
      </g>
      <g filter="url(#soft)" transform="translate(334,126)">
        <ellipse cx="35" cy="14" rx="35" ry="14" fill="#FEFEFE"/>
        <line x1="35" y1="28" x2="35" y2="67" stroke="#88694B" stroke-width="5"/>
        <line x1="35" y1="67" x2="18" y2="98" stroke="#88694B" stroke-width="4"/>
        <line x1="35" y1="67" x2="52" y2="98" stroke="#88694B" stroke-width="4"/>
      </g>

      <g filter="url(#soft)" transform="translate(910,162)">
        <polygon points="0,0 84,-10 106,3 22,13" fill="#9EA5AA"/>
        <polygon points="0,0 0,60 22,73 22,13" fill="#72797F"/>
        <polygon points="22,13 106,3 106,63 22,73" fill="#BFC5CA"/>
      </g>
      <g filter="url(#soft)" transform="translate(1015,135)">
        <polygon points="0,0 84,-10 106,3 22,13" fill="#9EA5AA"/>
        <polygon points="0,0 0,60 22,73 22,13" fill="#72797F"/>
        <polygon points="22,13 106,3 106,63 22,73" fill="#BFC5CA"/>
      </g>
      <g filter="url(#soft)" transform="translate(1096,182)">
        <polygon points="0,0 84,-10 106,3 22,13" fill="#9EA5AA"/>
        <polygon points="0,0 0,60 22,73 22,13" fill="#72797F"/>
        <polygon points="22,13 106,3 106,63 22,73" fill="#BFC5CA"/>
      </g>
    </g>

    <g transform="translate(106 952)">
      <circle cx="10" cy="10" r="10" fill="#1F5F74"/>
      <text x="30" y="17" class="caption">What updates live:</text>
      <text x="190" y="17" class="small">section position, width, depth, labels, furniture blocks, wall panels, and spacing relationships</text>
    </g>
    <g transform="translate(106 986)">
      <circle cx="10" cy="10" r="10" fill="#C05621"/>
      <text x="30" y="17" class="caption" fill="#C05621">What stays simple in v1:</text>
      <text x="258" y="17" class="small">materials are schematic, machines are generic blocks, and the polished marketing render is not recreated yet</text>
    </g>
  </g>
</svg>
